<?xml version="1.0" encoding="us-ascii" standalone="no"?><svg xmlns="http://www.w3.org/2000/svg" xmlns:xlink="http://www.w3.org/1999/xlink" contentStyleType="text/css" height="373px" preserveAspectRatio="none" style="width:411px;height:373px;background:#FFFFFF;" version="1.1" viewBox="0 0 411 373" width="411px" zoomAndPan="magnify"><defs/><g><line style="stroke:#EEEEEE;stroke-width:0.5;stroke-dasharray:5.0,5.0;" x1="27" x2="27" y1="86.9688" y2="286.8125"/><line style="stroke:#EEEEEE;stroke-width:0.5;stroke-dasharray:5.0,5.0;" x1="148" x2="148" y1="86.9688" y2="286.8125"/><line style="stroke:#EEEEEE;stroke-width:0.5;stroke-dasharray:5.0,5.0;" x1="205" x2="205" y1="86.9688" y2="286.8125"/><line style="stroke:#EEEEEE;stroke-width:0.5;stroke-dasharray:5.0,5.0;" x1="260" x2="260" y1="86.9688" y2="286.8125"/><line style="stroke:#EEEEEE;stroke-width:0.5;stroke-dasharray:5.0,5.0;" x1="315" x2="315" y1="86.9688" y2="286.8125"/><line style="stroke:#EEEEEE;stroke-width:0.5;stroke-dasharray:5.0,5.0;" x1="376" x2="376" y1="86.9688" y2="286.8125"/><text fill="#EEEEEE" font-family="sans-serif" font-size="12" lengthAdjust="spacing" textLength="31" x="9" y="80.1387">Foo1</text><ellipse cx="27.5" cy="13.5" fill="#1A618C" rx="8" ry="8" style="stroke:#EEEEEE;stroke-width:0.5;"/><path d="M27.5,21.5 L27.5,48.5 M14.5,29.5 L40.5,29.5 M27.5,48.5 L14.5,63.5 M27.5,48.5 L40.5,63.5 " fill="none" style="stroke:#EEEEEE;stroke-width:0.5;"/><text fill="#EEEEEE" font-family="sans-serif" font-size="12" lengthAdjust="spacing" textLength="31" x="9" y="300.9512">Foo1</text><ellipse cx="27.5" cy="316.2813" fill="#1A618C" rx="8" ry="8" style="stroke:#EEEEEE;stroke-width:0.5;"/><path d="M27.5,324.2813 L27.5,351.2813 M14.5,332.2813 L40.5,332.2813 M27.5,351.2813 L14.5,366.2813 M27.5,351.2813 L40.5,366.2813 " fill="none" style="stroke:#EEEEEE;stroke-width:0.5;"/><text fill="#EEEEEE" font-family="sans-serif" font-size="12" lengthAdjust="spacing" textLength="31" x="130" y="80.1387">Foo2</text><path d="M128,37 L128,61 M128,49 L145,49 " fill="none" style="stroke:#EEEEEE;stroke-width:0.5;"/><ellipse cx="157" cy="49" fill="#1A618C" rx="12" ry="12" style="stroke:#EEEEEE;stroke-width:0.5;"/><text fill="#EEEEEE" font-family="sans-serif" font-size="12" lengthAdjust="spacing" textLength="31" x="130" y="300.9512">Foo2</text><path d="M128,311.7813 L128,335.7813 M128,323.7813 L145,323.7813 " fill="none" style="stroke:#EEEEEE;stroke-width:0.5;"/><ellipse cx="157" cy="323.7813" fill="#1A618C" rx="12" ry="12" style="stroke:#EEEEEE;stroke-width:0.5;"/><text fill="#EEEEEE" font-family="sans-serif" font-size="12" lengthAdjust="spacing" textLength="31" x="187" y="80.1387">Foo3</text><ellipse cx="205.5" cy="49" fill="#1A618C" rx="12" ry="12" style="stroke:#EEEEEE;stroke-width:0.5;"/><polygon fill="#EEEEEE" points="201.5,37,207.5,32,205.5,37,207.5,42,201.5,37" style="stroke:#EEEEEE;stroke-width:1.0;"/><text fill="#EEEEEE" font-family="sans-serif" font-size="12" lengthAdjust="spacing" textLength="31" x="187" y="300.9512">Foo3</text><ellipse cx="205.5" cy="323.7813" fill="#1A618C" rx="12" ry="12" style="stroke:#EEEEEE;stroke-width:0.5;"/><polygon fill="#EEEEEE" points="201.5,311.7813,207.5,306.7813,205.5,311.7813,207.5,316.7813,201.5,311.7813" style="stroke:#EEEEEE;stroke-width:1.0;"/><text fill="#EEEEEE" font-family="sans-serif" font-size="12" lengthAdjust="spacing" textLength="31" x="242" y="80.1387">Foo4</text><ellipse cx="260.5" cy="49" fill="#1A618C" rx="12" ry="12" style="stroke:#EEEEEE;stroke-width:0.5;"/><line style="stroke:#EEEEEE;stroke-width:0.5;" x1="248.5" x2="272.5" y1="63" y2="63"/><text fill="#EEEEEE" font-family="sans-serif" font-size="12" lengthAdjust="spacing" textLength="31" x="242" y="300.9512">Foo4</text><ellipse cx="260.5" cy="323.7813" fill="#1A618C" rx="12" ry="12" style="stroke:#EEEEEE;stroke-width:0.5;"/><line style="stroke:#EEEEEE;stroke-width:0.5;" x1="248.5" x2="272.5" y1="337.7813" y2="337.7813"/><text fill="#EEEEEE" font-family="sans-serif" font-size="12" lengthAdjust="spacing" textLength="31" x="297" y="80.1387">Foo5</text><path d="M297.5,29 C297.5,19 315.5,19 315.5,19 C315.5,19 333.5,19 333.5,29 L333.5,55 C333.5,65 315.5,65 315.5,65 C315.5,65 297.5,65 297.5,55 L297.5,29 " fill="#1A618C" style="stroke:#EEEEEE;stroke-width:1.5;"/><path d="M297.5,29 C297.5,39 315.5,39 315.5,39 C315.5,39 333.5,39 333.5,29 " fill="none" style="stroke:#EEEEEE;stroke-width:1.5;"/><text fill="#EEEEEE" font-family="sans-serif" font-size="12" lengthAdjust="spacing" textLength="31" x="297" y="300.9512">Foo5</text><path d="M297.5,317.7813 C297.5,307.7813 315.5,307.7813 315.5,307.7813 C315.5,307.7813 333.5,307.7813 333.5,317.7813 L333.5,343.7813 C333.5,353.7813 315.5,353.7813 315.5,353.7813 C315.5,353.7813 297.5,353.7813 297.5,343.7813 L297.5,317.7813 " fill="#1A618C" style="stroke:#EEEEEE;stroke-width:1.5;"/><path d="M297.5,317.7813 C297.5,327.7813 315.5,327.7813 315.5,327.7813 C315.5,327.7813 333.5,327.7813 333.5,317.7813 " fill="none" style="stroke:#EEEEEE;stroke-width:1.5;"/><rect fill="#1A618C" height="35.9688" rx="2" ry="2" style="stroke:#EEEEEE;stroke-width:0.5;" width="53" x="352" y="46"/><rect fill="#1A618C" height="35.9688" rx="2" ry="2" style="stroke:#EEEEEE;stroke-width:0.5;" width="53" x="348" y="50"/><text fill="#EEEEEE" font-family="sans-serif" font-size="12" lengthAdjust="spacing" textLength="31" x="359" y="72.1387">Foo6</text><rect fill="#1A618C" height="35.9688" rx="2" ry="2" style="stroke:#EEEEEE;stroke-width:0.5;" width="53" x="352" y="285.8125"/><rect fill="#1A618C" height="35.9688" rx="2" ry="2" style="stroke:#EEEEEE;stroke-width:0.5;" width="53" x="348" y="289.8125"/><text fill="#EEEEEE" font-family="sans-serif" font-size="12" lengthAdjust="spacing" textLength="31" x="359" y="311.9512">Foo6</text><polygon fill="#EEEEEE" points="136.5,120.9375,146.5,124.9375,136.5,128.9375,140.5,124.9375" style="stroke:#EEEEEE;stroke-width:1.0;"/><line style="stroke:#EEEEEE;stroke-width:3.0;" x1="27.5" x2="142.5" y1="124.9375" y2="124.9375"/><text fill="#EEEEEE" font-family="sans-serif" font-size="12" font-weight="bold" lengthAdjust="spacing" textLength="89" x="38.5" y="116.1074">To boundary</text><polygon fill="#EEEEEE" points="193.5,156.9063,203.5,160.9063,193.5,164.9063,197.5,160.9063" style="stroke:#EEEEEE;stroke-width:1.0;"/><line style="stroke:#EEEEEE;stroke-width:3.0;" x1="27.5" x2="199.5" y1="160.9063" y2="160.9063"/><text fill="#EEEEEE" font-family="sans-serif" font-size="12" font-weight="bold" lengthAdjust="spacing" textLength="71" x="38.5" y="152.0762">To control</text><polygon fill="#EEEEEE" points="248.5,192.875,258.5,196.875,248.5,200.875,252.5,196.875" style="stroke:#EEEEEE;stroke-width:1.0;"/><line style="stroke:#EEEEEE;stroke-width:3.0;" x1="27.5" x2="254.5" y1="196.875" y2="196.875"/><text fill="#EEEEEE" font-family="sans-serif" font-size="12" font-weight="bold" lengthAdjust="spacing" textLength="63" x="38.5" y="188.0449">To entity</text><polygon fill="#EEEEEE" points="303.5,228.8438,313.5,232.8438,303.5,236.8438,307.5,232.8438" style="stroke:#EEEEEE;stroke-width:1.0;"/><line style="stroke:#EEEEEE;stroke-width:3.0;" x1="27.5" x2="309.5" y1="232.8438" y2="232.8438"/><text fill="#EEEEEE" font-family="sans-serif" font-size="12" font-weight="bold" lengthAdjust="spacing" textLength="89" x="38.5" y="224.0137">To database</text><polygon fill="#EEEEEE" points="364.5,264.8125,374.5,268.8125,364.5,272.8125,368.5,268.8125" style="stroke:#EEEEEE;stroke-width:1.0;"/><line style="stroke:#EEEEEE;stroke-width:3.0;" x1="27.5" x2="370.5" y1="268.8125" y2="268.8125"/><text fill="#EEEEEE" font-family="sans-serif" font-size="12" font-weight="bold" lengthAdjust="spacing" textLength="97" x="38.5" y="259.9824">To collections</text><!--SRC=[rLPDSzem4BthLsp28PTs9YI4f9rCPi0XQIOKCfXBJnbXBLY3B55PXD9E_tjb6x1C-4Wp-12TBEtglRShMRj738TS8ZJldxyt7ZhFNhVTxK4wAjL6lNhbaQFSnMzvtSvje_TZuLUfL-kNzIlNvQdXFJRkMokWoYKzE_qop5swlTjMp-M1IYiTAvUxRgTVSCXT23a1BWCnPGWcH1YXH4q5n6Ck9rJJA8QXqZ1G9lm4Wez20rGoO5IFxKwZGBsWdcbk46RSX1a6Vq49CHh3vIXU5zh_zk0zTbg-3-U4h6ZWYJ9ctQ7chFNKL39FQIkfiEw7bAbPuZsa8aONvXQ7T2eC_24dTqgQ3eqGZhiJgyUdCWOV8pvGWXsJnEefOMFBivCk-lmtGlMC_7LX6rghcGNTk6CpZ9aB6xFbAY9DQ32c8xHO6xSshNcaixWJK-4QaQRI3FN2ufoxfSWPf6B_0r-uNszZ25GqKH9bakPt2jweBilPD19hsMVKq06DyS1q1Ov0g2ahbK09WO7Xobx3GzFaB9vrq4gKoD1C8AcUbqZHaeQRCWcuDAY7DC0IENpyEKKPu1FLXWTyGgN9mFeX3yOIuzW-WBbxl72tYjmTEyMzWjwWq_79doMfT4J5kkrLE6q-nBPzkhU2hnnsoamVprVWwUfMvDIwKLHgSNFO28pIUnIaBbkv4kks7_W4l1eaMRFbnaugUuVxpslxmrCv4dXzFK4TAtbpOy_NjvSFbPbFS6lrE5HTMBznwpMu-4GvSl6N5IcfU3wyxhMUfmJnyJms67syN1zUTqcvNXRaZv7gNEt7oxHpJGQBmfkfNck1Yr6aFUpf_cxlNR7l3YmhC8p68RAtnBenrC0IKrjNz5jZhTRsNAKI8jrzX8GcLGNkbAgIvSabipCIB5eqEpadcBKwzhj6LcskdLqGjr-q2tMIGC7dcnG4la9VmHBNDPrdfWM9QwbbbepHDLnaXYMzQwelqLPQ_W40]--></g></svg>