<svg xmlns="http://www.w3.org/2000/svg" xmlns:xlink="http://www.w3.org/1999/xlink" contentStyleType="text/css" data-diagram-type="SEQUENCE" height="373px" preserveAspectRatio="none" style="width:398px;height:373px;background:#FFFFFF;" version="1.1" viewBox="0 0 398 373" width="398px" zoomAndPan="magnify"><defs/><g><g><title>Foo1</title><rect fill="#000000" fill-opacity="0.00000" height="199.8438" width="8" x="22.6104" y="86.9688"/><line style="stroke:#EEEEEE;stroke-width:0.5;stroke-dasharray:5.0,5.0;" x1="26" x2="26" y1="86.9688" y2="286.8125"/></g><g><title>Foo2</title><rect fill="#000000" fill-opacity="0.00000" height="199.8438" width="8" x="139.5654" y="86.9688"/><line style="stroke:#EEEEEE;stroke-width:0.5;stroke-dasharray:5.0,5.0;" x1="143.0654" x2="143.0654" y1="86.9688" y2="286.8125"/></g><g><title>Foo3</title><rect fill="#000000" fill-opacity="0.00000" height="199.8438" width="8" x="195.6758" y="86.9688"/><line style="stroke:#EEEEEE;stroke-width:0.5;stroke-dasharray:5.0,5.0;" x1="199.0654" x2="199.0654" y1="86.9688" y2="286.8125"/></g><g><title>Foo4</title><rect fill="#000000" fill-opacity="0.00000" height="199.8438" width="8" x="248.8965" y="86.9688"/><line style="stroke:#EEEEEE;stroke-width:0.5;stroke-dasharray:5.0,5.0;" x1="252.2861" x2="252.2861" y1="86.9688" y2="286.8125"/></g><g><title>Foo5</title><rect fill="#000000" fill-opacity="0.00000" height="199.8438" width="8" x="302.1172" y="86.9688"/><line style="stroke:#EEEEEE;stroke-width:0.5;stroke-dasharray:5.0,5.0;" x1="305.5068" x2="305.5068" y1="86.9688" y2="286.8125"/></g><g><title>Foo6</title><rect fill="#000000" fill-opacity="0.00000" height="199.8438" width="8" x="361.3379" y="86.9688"/><line style="stroke:#EEEEEE;stroke-width:0.5;stroke-dasharray:5.0,5.0;" x1="364.7275" x2="364.7275" y1="86.9688" y2="286.8125"/></g><g class="participant participant-head" data-participant="Foo1"><text fill="#EEEEEE" font-family="sans-serif" font-size="12" lengthAdjust="spacing" textLength="29.2207" x="9" y="80.1387">Foo1</text><ellipse cx="26.6104" cy="13.5" fill="#1A618C" rx="8" ry="8" style="stroke:#EEEEEE;stroke-width:0.5;"/><path d="M26.6104,21.5 L26.6104,48.5 M13.6104,29.5 L39.6104,29.5 M26.6104,48.5 L13.6104,63.5 M26.6104,48.5 L39.6104,63.5 " fill="none" style="stroke:#EEEEEE;stroke-width:0.5;"/></g><g class="participant participant-tail" data-participant="Foo1"><text fill="#EEEEEE" font-family="sans-serif" font-size="12" lengthAdjust="spacing" textLength="29.2207" x="9" y="300.9512">Foo1</text><ellipse cx="26.6104" cy="316.2813" fill="#1A618C" rx="8" ry="8" style="stroke:#EEEEEE;stroke-width:0.5;"/><path d="M26.6104,324.2813 L26.6104,351.2813 M13.6104,332.2813 L39.6104,332.2813 M26.6104,351.2813 L13.6104,366.2813 M26.6104,351.2813 L39.6104,366.2813 " fill="none" style="stroke:#EEEEEE;stroke-width:0.5;"/></g><g class="participant participant-head" data-participant="Foo2"><text fill="#EEEEEE" font-family="sans-serif" font-size="12" lengthAdjust="spacing" textLength="29.2207" x="125.9551" y="80.1387">Foo2</text><path d="M123.0654,37 L123.0654,61 M123.0654,49 L140.0654,49 " fill="none" style="stroke:#EEEEEE;stroke-width:0.5;"/><ellipse cx="152.0654" cy="49" fill="#1A618C" rx="12" ry="12" style="stroke:#EEEEEE;stroke-width:0.5;"/></g><g class="participant participant-tail" data-participant="Foo2"><text fill="#EEEEEE" font-family="sans-serif" font-size="12" lengthAdjust="spacing" textLength="29.2207" x="125.9551" y="300.9512">Foo2</text><path d="M123.0654,311.7813 L123.0654,335.7813 M123.0654,323.7813 L140.0654,323.7813 " fill="none" style="stroke:#EEEEEE;stroke-width:0.5;"/><ellipse cx="152.0654" cy="323.7813" fill="#1A618C" rx="12" ry="12" style="stroke:#EEEEEE;stroke-width:0.5;"/></g><g class="participant participant-head" data-participant="Foo3"><text fill="#EEEEEE" font-family="sans-serif" font-size="12" lengthAdjust="spacing" textLength="29.2207" x="182.0654" y="80.1387">Foo3</text><ellipse cx="199.6758" cy="49" fill="#1A618C" rx="12" ry="12" style="stroke:#EEEEEE;stroke-width:0.5;"/><polygon fill="#EEEEEE" points="195.6758,37,201.6758,32,199.6758,37,201.6758,42,195.6758,37" style="stroke:#EEEEEE;stroke-width:1;"/></g><g class="participant participant-tail" data-participant="Foo3"><text fill="#EEEEEE" font-family="sans-serif" font-size="12" lengthAdjust="spacing" textLength="29.2207" x="182.0654" y="300.9512">Foo3</text><ellipse cx="199.6758" cy="323.7813" fill="#1A618C" rx="12" ry="12" style="stroke:#EEEEEE;stroke-width:0.5;"/><polygon fill="#EEEEEE" points="195.6758,311.7813,201.6758,306.7813,199.6758,311.7813,201.6758,316.7813,195.6758,311.7813" style="stroke:#EEEEEE;stroke-width:1;"/></g><g class="participant participant-head" data-participant="Foo4"><text fill="#EEEEEE" font-family="sans-serif" font-size="12" lengthAdjust="spacing" textLength="29.2207" x="235.2861" y="80.1387">Foo4</text><ellipse cx="252.8965" cy="49" fill="#1A618C" rx="12" ry="12" style="stroke:#EEEEEE;stroke-width:0.5;"/><line style="stroke:#EEEEEE;stroke-width:0.5;" x1="240.8965" x2="264.8965" y1="63" y2="63"/></g><g class="participant participant-tail" data-participant="Foo4"><text fill="#EEEEEE" font-family="sans-serif" font-size="12" lengthAdjust="spacing" textLength="29.2207" x="235.2861" y="300.9512">Foo4</text><ellipse cx="252.8965" cy="323.7813" fill="#1A618C" rx="12" ry="12" style="stroke:#EEEEEE;stroke-width:0.5;"/><line style="stroke:#EEEEEE;stroke-width:0.5;" x1="240.8965" x2="264.8965" y1="337.7813" y2="337.7813"/></g><g class="participant participant-head" data-participant="Foo5"><text fill="#EEEEEE" font-family="sans-serif" font-size="12" lengthAdjust="spacing" textLength="29.2207" x="288.5068" y="80.1387">Foo5</text><path d="M288.1172,29 C288.1172,19 306.1172,19 306.1172,19 C306.1172,19 324.1172,19 324.1172,29 L324.1172,55 C324.1172,65 306.1172,65 306.1172,65 C306.1172,65 288.1172,65 288.1172,55 L288.1172,29 " fill="#1A618C" style="stroke:#EEEEEE;stroke-width:1.5;"/><path d="M288.1172,29 C288.1172,39 306.1172,39 306.1172,39 C306.1172,39 324.1172,39 324.1172,29 " fill="none" style="stroke:#EEEEEE;stroke-width:1.5;"/></g><g class="participant participant-tail" data-participant="Foo5"><text fill="#EEEEEE" font-family="sans-serif" font-size="12" lengthAdjust="spacing" textLength="29.2207" x="288.5068" y="300.9512">Foo5</text><path d="M288.1172,317.7813 C288.1172,307.7813 306.1172,307.7813 306.1172,307.7813 C306.1172,307.7813 324.1172,307.7813 324.1172,317.7813 L324.1172,343.7813 C324.1172,353.7813 306.1172,353.7813 306.1172,353.7813 C306.1172,353.7813 288.1172,353.7813 288.1172,343.7813 L288.1172,317.7813 " fill="#1A618C" style="stroke:#EEEEEE;stroke-width:1.5;"/><path d="M288.1172,317.7813 C288.1172,327.7813 306.1172,327.7813 306.1172,327.7813 C306.1172,327.7813 324.1172,327.7813 324.1172,317.7813 " fill="none" style="stroke:#EEEEEE;stroke-width:1.5;"/></g><g class="participant participant-head" data-participant="Foo6"><rect fill="#1A618C" height="35.9688" rx="2" ry="2" style="stroke:#EEEEEE;stroke-width:0.5;" width="51.2207" x="341.7275" y="46"/><rect fill="#1A618C" height="35.9688" rx="2" ry="2" style="stroke:#EEEEEE;stroke-width:0.5;" width="51.2207" x="337.7275" y="50"/><text fill="#EEEEEE" font-family="sans-serif" font-size="12" lengthAdjust="spacing" textLength="29.2207" x="348.7275" y="72.1387">Foo6</text></g><g class="participant participant-tail" data-participant="Foo6"><rect fill="#1A618C" height="35.9688" rx="2" ry="2" style="stroke:#EEEEEE;stroke-width:0.5;" width="51.2207" x="341.7275" y="285.8125"/><rect fill="#1A618C" height="35.9688" rx="2" ry="2" style="stroke:#EEEEEE;stroke-width:0.5;" width="51.2207" x="337.7275" y="289.8125"/><text fill="#EEEEEE" font-family="sans-serif" font-size="12" lengthAdjust="spacing" textLength="29.2207" x="348.7275" y="311.9512">Foo6</text></g><g class="message" data-participant-1="Foo1" data-participant-2="Foo2"><polygon fill="#EEEEEE" points="131.5654,120.9375,141.5654,124.9375,131.5654,128.9375,135.5654,124.9375" style="stroke:#EEEEEE;stroke-width:1;"/><line style="stroke:#EEEEEE;stroke-width:3;" x1="26.6104" x2="137.5654" y1="124.9375" y2="124.9375"/><text fill="#EEEEEE" font-family="sans-serif" font-size="12" font-weight="bold" lengthAdjust="spacing" textLength="84.9551" x="37.6104" y="116.1074">To boundary</text></g><g class="message" data-participant-1="Foo1" data-participant-2="Foo3"><polygon fill="#EEEEEE" points="187.6758,156.9063,197.6758,160.9063,187.6758,164.9063,191.6758,160.9063" style="stroke:#EEEEEE;stroke-width:1;"/><line style="stroke:#EEEEEE;stroke-width:3;" x1="26.6104" x2="193.6758" y1="160.9063" y2="160.9063"/><text fill="#EEEEEE" font-family="sans-serif" font-size="12" font-weight="bold" lengthAdjust="spacing" textLength="68.5195" x="37.6104" y="152.0762">To control</text></g><g class="message" data-participant-1="Foo1" data-participant-2="Foo4"><polygon fill="#EEEEEE" points="240.8965,192.875,250.8965,196.875,240.8965,200.875,244.8965,196.875" style="stroke:#EEEEEE;stroke-width:1;"/><line style="stroke:#EEEEEE;stroke-width:3;" x1="26.6104" x2="246.8965" y1="196.875" y2="196.875"/><text fill="#EEEEEE" font-family="sans-serif" font-size="12" font-weight="bold" lengthAdjust="spacing" textLength="60.6973" x="37.6104" y="188.0449">To entity</text></g><g class="message" data-participant-1="Foo1" data-participant-2="Foo5"><polygon fill="#EEEEEE" points="294.1172,228.8438,304.1172,232.8438,294.1172,236.8438,298.1172,232.8438" style="stroke:#EEEEEE;stroke-width:1;"/><line style="stroke:#EEEEEE;stroke-width:3;" x1="26.6104" x2="300.1172" y1="232.8438" y2="232.8438"/><text fill="#EEEEEE" font-family="sans-serif" font-size="12" font-weight="bold" lengthAdjust="spacing" textLength="83.0977" x="37.6104" y="224.0137">To database</text></g><g class="message" data-participant-1="Foo1" data-participant-2="Foo6"><polygon fill="#EEEEEE" points="353.3379,264.8125,363.3379,268.8125,353.3379,272.8125,357.3379,268.8125" style="stroke:#EEEEEE;stroke-width:1;"/><line style="stroke:#EEEEEE;stroke-width:3;" x1="26.6104" x2="359.3379" y1="268.8125" y2="268.8125"/><text fill="#EEEEEE" font-family="sans-serif" font-size="12" font-weight="bold" lengthAdjust="spacing" textLength="93.2227" x="37.6104" y="259.9824">To collections</text></g><!--SRC=[rLPDSzem4BthLsp28PTs9YI4f9rCPi0XQIOKCfXBJnbXBLY3B55PXD9E_tjb6x1C-4Wp-12TBEtglRShMRj738TS8ZJldxyt7ZhFNhVTxK4wAjL6lNhbaQFSnMzvtSvje_TZuLUfL-kNzIlNvQdXFJRkMokWoYKzE_qop5swlTjMp-M1IYiTAvUxRgTVSCXT23a1BWCnPGWcH1YXH4q5n6Ck9rJJA8QXqZ1G9lm4Wez20rGoO5IFxKwZGBsWdcbk46RSX1a6Vq49CHh3vIXU5zh_zk0zTbg-3-U4h6ZWYJ9ctQ7chFNKL39FQIkfiEw7bAbPuZsa8aONvXQ7T2eC_24dTqgQ3eqGZhiJgyUdCWOV8pvGWXsJnEefOMFBivCk-lmtGlMC_7LX6rghcGNTk6CpZ9aB6xFbAY9DQ32c8xHO6xSshNcaixWJK-4QaQRI3FN2ufoxfSWPf6B_0r-uNszZ25GqKH9bakPt2jweBilPD19hsMVKq06DyS1q1Ov0g2ahbK09WO7Xobx3GzFaB9vrq4gKoD1C8AcUbqZHaeQRCWcuDAY7DC0IENpyEKKPu1FLXWTyGgN9mFeX3yOIuzW-WBbxl72tYjmTEyMzWjwWq_79doMfT4J5kkrLE6q-nBPzkhU2hnnsoamVprVWwUfMvDIwKLHgSNFO28pIUnIaBbkv4kks7_W4l1eaMRFbnaugUuVxpslxmrCv4dXzFK4TAtbpOy_NjvSFbPbFS6lrE5HTMBznwpMu-4GvSl6N5IcfU3wyxhMUfmJnyJms67syN1zUTqcvNXRaZv7gNEt7oxHpJGQBmfkfNck1Yr6aFUpf_cxlNR7l3YmhC8p68RAtnBenrC0IKrjNz5jZhTRsNAKI8jrzX8GcLGNkbAgIvSabipCIB5eqEpadcBKwzhj6LcskdLqGjr-q2tMIGC7dcnG4la9VmHBNDPrdfWM9QwbbbepHDLnaXYMzQwelqLPQ_W40]--></g></svg>