<svg xmlns="http://www.w3.org/2000/svg" xmlns:xlink="http://www.w3.org/1999/xlink" contentStyleType="text/css" data-diagram-type="SEQUENCE" height="373px" preserveAspectRatio="none" style="width:398px;height:373px;background:#FFFFFF;" version="1.1" viewBox="0 0 398 373" width="398px" zoomAndPan="magnify"><defs/><g><g><title>Foo1</title><rect fill="#000000" fill-opacity="0.00000" height="199.8438" width="8" x="22.6104" y="86.9688"/><line style="stroke:#444444;stroke-width:0.5;stroke-dasharray:5.0,5.0;" x1="26" x2="26" y1="86.9688" y2="286.8125"/></g><g><title>Foo2</title><rect fill="#000000" fill-opacity="0.00000" height="199.8438" width="8" x="139.5654" y="86.9688"/><line style="stroke:#444444;stroke-width:0.5;stroke-dasharray:5.0,5.0;" x1="143.0654" x2="143.0654" y1="86.9688" y2="286.8125"/></g><g><title>Foo3</title><rect fill="#000000" fill-opacity="0.00000" height="199.8438" width="8" x="195.6758" y="86.9688"/><line style="stroke:#444444;stroke-width:0.5;stroke-dasharray:5.0,5.0;" x1="199.0654" x2="199.0654" y1="86.9688" y2="286.8125"/></g><g><title>Foo4</title><rect fill="#000000" fill-opacity="0.00000" height="199.8438" width="8" x="248.8965" y="86.9688"/><line style="stroke:#444444;stroke-width:0.5;stroke-dasharray:5.0,5.0;" x1="252.2861" x2="252.2861" y1="86.9688" y2="286.8125"/></g><g><title>Foo5</title><rect fill="#000000" fill-opacity="0.00000" height="199.8438" width="8" x="302.1172" y="86.9688"/><line style="stroke:#444444;stroke-width:0.5;stroke-dasharray:5.0,5.0;" x1="305.5068" x2="305.5068" y1="86.9688" y2="286.8125"/></g><g><title>Foo6</title><rect fill="#000000" fill-opacity="0.00000" height="199.8438" width="8" x="361.3379" y="86.9688"/><line style="stroke:#444444;stroke-width:0.5;stroke-dasharray:5.0,5.0;" x1="364.7275" x2="364.7275" y1="86.9688" y2="286.8125"/></g><g class="participant participant-head" data-participant="Foo1"><text fill="#444444" font-family="sans-serif" font-size="12" lengthAdjust="spacing" textLength="29.2207" x="9" y="80.1387">Foo1</text><ellipse cx="26.6104" cy="13.5" fill="#66BCF0" rx="8" ry="8" style="stroke:#444444;stroke-width:0.5;"/><path d="M26.6104,21.5 L26.6104,48.5 M13.6104,29.5 L39.6104,29.5 M26.6104,48.5 L13.6104,63.5 M26.6104,48.5 L39.6104,63.5 " fill="none" style="stroke:#444444;stroke-width:0.5;"/></g><g class="participant participant-tail" data-participant="Foo1"><text fill="#444444" font-family="sans-serif" font-size="12" lengthAdjust="spacing" textLength="29.2207" x="9" y="300.9512">Foo1</text><ellipse cx="26.6104" cy="316.2813" fill="#66BCF0" rx="8" ry="8" style="stroke:#444444;stroke-width:0.5;"/><path d="M26.6104,324.2813 L26.6104,351.2813 M13.6104,332.2813 L39.6104,332.2813 M26.6104,351.2813 L13.6104,366.2813 M26.6104,351.2813 L39.6104,366.2813 " fill="none" style="stroke:#444444;stroke-width:0.5;"/></g><g class="participant participant-head" data-participant="Foo2"><text fill="#444444" font-family="sans-serif" font-size="12" lengthAdjust="spacing" textLength="29.2207" x="125.9551" y="80.1387">Foo2</text><path d="M123.0654,37 L123.0654,61 M123.0654,49 L140.0654,49 " fill="none" style="stroke:#444444;stroke-width:0.5;"/><ellipse cx="152.0654" cy="49" fill="#66BCF0" rx="12" ry="12" style="stroke:#444444;stroke-width:0.5;"/></g><g class="participant participant-tail" data-participant="Foo2"><text fill="#444444" font-family="sans-serif" font-size="12" lengthAdjust="spacing" textLength="29.2207" x="125.9551" y="300.9512">Foo2</text><path d="M123.0654,311.7813 L123.0654,335.7813 M123.0654,323.7813 L140.0654,323.7813 " fill="none" style="stroke:#444444;stroke-width:0.5;"/><ellipse cx="152.0654" cy="323.7813" fill="#66BCF0" rx="12" ry="12" style="stroke:#444444;stroke-width:0.5;"/></g><g class="participant participant-head" data-participant="Foo3"><text fill="#444444" font-family="sans-serif" font-size="12" lengthAdjust="spacing" textLength="29.2207" x="182.0654" y="80.1387">Foo3</text><ellipse cx="199.6758" cy="49" fill="#66BCF0" rx="12" ry="12" style="stroke:#444444;stroke-width:0.5;"/><polygon fill="#444444" points="195.6758,37,201.6758,32,199.6758,37,201.6758,42,195.6758,37" style="stroke:#444444;stroke-width:1;"/></g><g class="participant participant-tail" data-participant="Foo3"><text fill="#444444" font-family="sans-serif" font-size="12" lengthAdjust="spacing" textLength="29.2207" x="182.0654" y="300.9512">Foo3</text><ellipse cx="199.6758" cy="323.7813" fill="#66BCF0" rx="12" ry="12" style="stroke:#444444;stroke-width:0.5;"/><polygon fill="#444444" points="195.6758,311.7813,201.6758,306.7813,199.6758,311.7813,201.6758,316.7813,195.6758,311.7813" style="stroke:#444444;stroke-width:1;"/></g><g class="participant participant-head" data-participant="Foo4"><text fill="#444444" font-family="sans-serif" font-size="12" lengthAdjust="spacing" textLength="29.2207" x="235.2861" y="80.1387">Foo4</text><ellipse cx="252.8965" cy="49" fill="#66BCF0" rx="12" ry="12" style="stroke:#444444;stroke-width:0.5;"/><line style="stroke:#444444;stroke-width:0.5;" x1="240.8965" x2="264.8965" y1="63" y2="63"/></g><g class="participant participant-tail" data-participant="Foo4"><text fill="#444444" font-family="sans-serif" font-size="12" lengthAdjust="spacing" textLength="29.2207" x="235.2861" y="300.9512">Foo4</text><ellipse cx="252.8965" cy="323.7813" fill="#66BCF0" rx="12" ry="12" style="stroke:#444444;stroke-width:0.5;"/><line style="stroke:#444444;stroke-width:0.5;" x1="240.8965" x2="264.8965" y1="337.7813" y2="337.7813"/></g><g class="participant participant-head" data-participant="Foo5"><text fill="#444444" font-family="sans-serif" font-size="12" lengthAdjust="spacing" textLength="29.2207" x="288.5068" y="80.1387">Foo5</text><path d="M288.1172,29 C288.1172,19 306.1172,19 306.1172,19 C306.1172,19 324.1172,19 324.1172,29 L324.1172,55 C324.1172,65 306.1172,65 306.1172,65 C306.1172,65 288.1172,65 288.1172,55 L288.1172,29 " fill="#66BCF0" style="stroke:#444444;stroke-width:1.5;"/><path d="M288.1172,29 C288.1172,39 306.1172,39 306.1172,39 C306.1172,39 324.1172,39 324.1172,29 " fill="none" style="stroke:#444444;stroke-width:1.5;"/></g><g class="participant participant-tail" data-participant="Foo5"><text fill="#444444" font-family="sans-serif" font-size="12" lengthAdjust="spacing" textLength="29.2207" x="288.5068" y="300.9512">Foo5</text><path d="M288.1172,317.7813 C288.1172,307.7813 306.1172,307.7813 306.1172,307.7813 C306.1172,307.7813 324.1172,307.7813 324.1172,317.7813 L324.1172,343.7813 C324.1172,353.7813 306.1172,353.7813 306.1172,353.7813 C306.1172,353.7813 288.1172,353.7813 288.1172,343.7813 L288.1172,317.7813 " fill="#66BCF0" style="stroke:#444444;stroke-width:1.5;"/><path d="M288.1172,317.7813 C288.1172,327.7813 306.1172,327.7813 306.1172,327.7813 C306.1172,327.7813 324.1172,327.7813 324.1172,317.7813 " fill="none" style="stroke:#444444;stroke-width:1.5;"/></g><g class="participant participant-head" data-participant="Foo6"><rect fill="#66BCF0" height="35.9688" rx="2" ry="2" style="stroke:#444444;stroke-width:0.5;" width="51.2207" x="341.7275" y="46"/><rect fill="#66BCF0" height="35.9688" rx="2" ry="2" style="stroke:#444444;stroke-width:0.5;" width="51.2207" x="337.7275" y="50"/><text fill="#444444" font-family="sans-serif" font-size="12" lengthAdjust="spacing" textLength="29.2207" x="348.7275" y="72.1387">Foo6</text></g><g class="participant participant-tail" data-participant="Foo6"><rect fill="#66BCF0" height="35.9688" rx="2" ry="2" style="stroke:#444444;stroke-width:0.5;" width="51.2207" x="341.7275" y="285.8125"/><rect fill="#66BCF0" height="35.9688" rx="2" ry="2" style="stroke:#444444;stroke-width:0.5;" width="51.2207" x="337.7275" y="289.8125"/><text fill="#444444" font-family="sans-serif" font-size="12" lengthAdjust="spacing" textLength="29.2207" x="348.7275" y="311.9512">Foo6</text></g><g class="message" data-participant-1="Foo1" data-participant-2="Foo2"><polygon fill="#444444" points="131.5654,120.9375,141.5654,124.9375,131.5654,128.9375,135.5654,124.9375" style="stroke:#444444;stroke-width:1;"/><line style="stroke:#444444;stroke-width:3;" x1="26.6104" x2="137.5654" y1="124.9375" y2="124.9375"/><text fill="#444444" font-family="sans-serif" font-size="12" font-weight="bold" lengthAdjust="spacing" textLength="84.9551" x="37.6104" y="116.1074">To boundary</text></g><g class="message" data-participant-1="Foo1" data-participant-2="Foo3"><polygon fill="#444444" points="187.6758,156.9063,197.6758,160.9063,187.6758,164.9063,191.6758,160.9063" style="stroke:#444444;stroke-width:1;"/><line style="stroke:#444444;stroke-width:3;" x1="26.6104" x2="193.6758" y1="160.9063" y2="160.9063"/><text fill="#444444" font-family="sans-serif" font-size="12" font-weight="bold" lengthAdjust="spacing" textLength="68.5195" x="37.6104" y="152.0762">To control</text></g><g class="message" data-participant-1="Foo1" data-participant-2="Foo4"><polygon fill="#444444" points="240.8965,192.875,250.8965,196.875,240.8965,200.875,244.8965,196.875" style="stroke:#444444;stroke-width:1;"/><line style="stroke:#444444;stroke-width:3;" x1="26.6104" x2="246.8965" y1="196.875" y2="196.875"/><text fill="#444444" font-family="sans-serif" font-size="12" font-weight="bold" lengthAdjust="spacing" textLength="60.6973" x="37.6104" y="188.0449">To entity</text></g><g class="message" data-participant-1="Foo1" data-participant-2="Foo5"><polygon fill="#444444" points="294.1172,228.8438,304.1172,232.8438,294.1172,236.8438,298.1172,232.8438" style="stroke:#444444;stroke-width:1;"/><line style="stroke:#444444;stroke-width:3;" x1="26.6104" x2="300.1172" y1="232.8438" y2="232.8438"/><text fill="#444444" font-family="sans-serif" font-size="12" font-weight="bold" lengthAdjust="spacing" textLength="83.0977" x="37.6104" y="224.0137">To database</text></g><g class="message" data-participant-1="Foo1" data-participant-2="Foo6"><polygon fill="#444444" points="353.3379,264.8125,363.3379,268.8125,353.3379,272.8125,357.3379,268.8125" style="stroke:#444444;stroke-width:1;"/><line style="stroke:#444444;stroke-width:3;" x1="26.6104" x2="359.3379" y1="268.8125" y2="268.8125"/><text fill="#444444" font-family="sans-serif" font-size="12" font-weight="bold" lengthAdjust="spacing" textLength="93.2227" x="37.6104" y="259.9824">To collections</text></g><!--SRC=[rLRVRzem47xtNt4j3ttPfD9If4rL9P92LxM3Yl2ofyh41rWuTkQOCZRjVv-J074eFxgAFDHFiU_yVT-T7T-TC1nnYU3TFNzltNUV_TvZhm_Pg3MRdjyv9oU5Iz3sUztRLl_7qg_cDJpVQxikJot_eNNNNWFL48SNN-g5Iwz_s-wxF51hP6Fjqkbr1oM7meMGC-0o53E6O2O8OvIegO1aocLCDOqI62aDGsKcdq3mySG0bGmOrLExqoXGBwZdcXk4EJUJ78E_e8G4ZU5od6mA7Noxzn-wxI20IqBMDF146RFkq73M-ceccQ-qbLHQ3oQKgNdgFQ8YGHVc5aTq9Wpy8MST9KsNHWYdlTZg2QXC8C283vLWfoIr-ahOs8hiP8i1_urGlo1_NTYMrcfkGRVks0vZ5iB6RBdAI34DftIC5clhLi-QnpgFEpMLhX7nb6QebnRdt2r5mI0L-n_uqlrw6qEeebX9b6cQtobugxeyPxD8R6IVKKE7DC4ZqvKuGg5ch5829GI6XYjx3OzDKx3ura4hKI63bq9IlQYGeYqDDrKIS6bGZsY85N84-7E6CiGdgWqFUKoboS464nvE9IQ9VG0BzsJfRXMvE_QAUmMzHQVZKpnBKkc8YatRgt0U-GWVxTEz4tpji5TczdY-0izMTo9drgsYCekRmrPeb3wW87FPoPLQT_t0P-0t8CsQBJTsKZiut7zUsn-Uoh70w-iOTQBapOqzty1UFbHc4UFEwd6ikh1vupPhSFc9SkJYBojIKl5yVDqRFKy5ufD5OZ3wUBa-lkwAShqgo1yZrONQZvTfvveCbuKtLxtH0fUZo7hOyyFTthjYtnzONc0OJIR8tXBhrb13IqnjNT5lZRNUE72LAeXq_n4IcbOLw2XL9wkJIsSN95osQ7PoIJ1lTUntWwpRN3kx8cw_Q1UQ98M2ppSP27o5WO8Lhckwp4rB4jVIo2qveskuoWqhUjVKNA6jjVm3]--></g></svg>